# xmcd
# 
# Track frame offsets:
#     150
#     20912
#     40685
#     59787
#     78667
#     94997
#     114937
#     134837
#     156737
#     171235
# 
# Disc length: 2524
# 
# Revision: 6
# Processed by: cddbd v1.5.2PL0 Copyright (c) Steve Scherf et al.
# Submitted via: BonkEnc v1.0.8
# 
DISCID=9609da0a
DTITLE=Various Artist - ¶Ë¤ß
DYEAR=1996
DGENRE=Pop
TTITLE0=陳潔儀 - 傷心
TTITLE1=陳潔儀 - 像男孩的男人
TTITLE2=陳潔儀 - 感覺失蹤
TTITLE3=陳潔儀 - 愛那麼靠近
TTITLE4=陳潔儀 - 男人真有趣
TTITLE5=陳潔儀 - 喜歡你
TTITLE6=陳潔儀 - 眼睛濕濕的
TTITLE7=陳潔儀 - 約會
TTITLE8=陳潔儀 - 習慣
TTITLE9=陳潔儀 - Wind Beneath My Wings
EXTD=YEAR: 1996 ID3G: 13
EXTT0=
EXTT1=
EXTT2=
EXTT3=
EXTT4=
EXTT5=
EXTT6=
EXTT7=
EXTT8=
EXTT9=
PLAYORDER=
